<?xml version="1.0" encoding="utf-8" ?>
<svg baseProfile="full" height="200mm" version="1.1" viewBox="0,0,200,200" width="200mm" xmlns="http://www.w3.org/2000/svg" xmlns:ev="http://www.w3.org/2001/xml-events" xmlns:xlink="http://www.w3.org/1999/xlink"><defs /><rect fill="#1a1a1a" height="200" width="200" x="0" y="0" /><rect fill="#1a1a1a" height="200" width="180" x="10" y="0" /><text alignment-baseline="middle" fill="#e1ed5e" style="dominant-baseline: central; font-size:9.0px; font-family:Arial;" text-anchor="middle" x="100.0" y="100.0">2025</text><line stroke="#e1ed5e" stroke-width="0.3" x1="100.0" x2="100.0" y1="15.0" y2="10.0" /><path d="M 100.0 14.0 a86.0,86.0 0 0,1 42.46469731375804,11.215312516191453" fill="none" id="id1" stroke="none" /><text fill="#e1ed5e" style="font-size:6.75px; font-family:Arial;" text-anchor="middle"><textPath startOffset="22.20632615414155" xlink:href="#id1">January</textPath></text><line stroke="#e1ed5e" stroke-width="0.3" x1="143.23703022742887" x2="145.7803849466894" y1="26.81831364943548" y2="22.513508569990506" /><path d="M 143.74570117128098 25.957352633546492 a86.0,86.0 0 0,1 28.547481713284135,27.462654790039103" fill="none" id="id2" stroke="none" /><text fill="#e1ed5e" style="font-size:6.75px; font-family:Arial;" text-anchor="middle"><textPath startOffset="19.985693538727396" xlink:href="#id2">February</textPath></text><line stroke="#e1ed5e" stroke-width="0.3" x1="172.23445277983987" x2="176.4835382374775" y1="55.19839476539836" y2="52.563006222186495" /><path d="M 173.08426987136738 54.67131705675599 a86.0,86.0 0 0,1 12.851231095245387,41.99856678651699" fill="none" id="id3" stroke="none" /><text fill="#e1ed5e" style="font-size:6.75px; font-family:Arial;" text-anchor="middle"><textPath startOffset="22.20632615414155" xlink:href="#id3">March</textPath></text><path d="M 120.87857604477298 97.74499172005257 l 15.279244567497791 -1.6502477437715473 a36.368104377874126,36.368104377874126 0 0,0 0.06186539151744697,0.6229760498388802 l -15.305387084697466 1.3869961632282322" fill="#ffa70f" stroke="none" /><path d="M 120.91429891909075 98.10471618934814 l 3.85497122410451 -0.34934302984953775 a24.87076784258347,24.87076784258347 0 0,0 0.03496772658846609,0.42669483438282807 l -3.8604134345124708 0.2829342782589409" fill="#ff0000" stroke="none" /><path d="M 120.94382443527127 98.46500227214037 l 18.739447729671504 -1.3734363451761602 a39.78971071111371,39.78971071111371 0 0,0 0.04418440656611665,0.6835132130965803 l -18.760312727242038 1.0506640678265446" fill="#ffd513" stroke="none" /><path d="M 120.96714384426684 98.82574320788733 l 20.642592389623676 -1.156080413258426 a41.67493996330023,41.67493996330023 0 0,0 0.033947992850367995,0.7165884739476669 l -20.659433990707537 0.8005808326877593" fill="#ffed16" stroke="none" /><path d="M 120.98425023603335 99.18683210126433 l 16.951790917509285 -0.6569046806603046 a37.96451411241783,37.96451411241783 0 0,0 0.019684249023760966,0.653224394634356 l -16.96058686098869 0.36501013860094955" fill="#ffbc11" stroke="none" /><line stroke="#e1ed5e" stroke-width="0.3" x1="184.98032266829074" x2="189.97916517819016" y1="98.17113171792111" y2="98.06355123074" /><path d="M 185.9800911702706 98.14961562048488 a86.0,86.0 0 0,1 -9.607161424134198,41.387399972396054" fill="none" id="id4" stroke="none" /><text fill="#e1ed5e" style="font-size:6.75px; font-family:Arial;" text-anchor="middle"><textPath startOffset="21.466115282336823" xlink:href="#id4">April</textPath></text><path d="M 120.99513854157772 99.54816195383933 l 12.400435684741378 -0.26687076249764613 a33.40330702576065,33.40330702576065 0 0,0 0.0074234760063803355,0.5749563976517467 l -12.403192167865473 0.05337810678543679" fill="#ff7e0b" stroke="none" /><path d="M 120.99980553446 99.90962569577887 l 16.911462493202997 -0.07277980044515017 a37.91161909925731,37.91161909925731 0 0,0 -0.002808533742478282,0.6526043319206513 l -16.910209662171017 -0.21833400967918581" fill="#ffbc11" stroke="none" /><path d="M 120.99824983174949 100.27111621757518 l 16.709862600061545 0.2157472542059134 a37.71125533856248,37.71125533856248 0 0,0 -0.013967418099667473,0.6490110351759943 l -16.70367311927687 -0.5033481051720226" fill="#ffb911" stroke="none" /><path d="M 120.9904718944345 100.63252640178507 l 10.964683835274906 0.3304095328545832 a31.969660982315727,31.969660982315727 0 0,0 -0.02130986034392992,0.5499128072409999 l -10.957371842079773 -0.5190995871095893" fill="#ff6909" stroke="none" /><path d="M 120.95626037817324 101.35467743843564 l 30.209209882025625 1.9528166916064276 a51.272262134292035,51.272262134292035 0 0,0 -0.06451379098343649,0.8802394215234152 l -30.17111953237785 -2.472529249626613" fill="#9bff22" stroke="none" /><path d="M 120.92983693683757 101.71520430193887 l 17.068275437498325 1.3987485686306607 a38.1254933934341,38.1254933934341 0 0,0 -0.05923141019507069,0.6536136758287996 l -17.04166943102618 -1.6923436330080308" fill="#ffbf11" stroke="none" /><path d="M 120.89721153311464 102.0752229133903 l 11.192592850734114 1.1114939956120538 a32.24764658160035,32.24764658160035 0 0,0 -0.059608543919295105,0.5519010853326904 l -11.171802005313767 -1.3039914028295354" fill="#ff6d0a" stroke="none" /><path d="M 120.8583938346157 102.4346265915055 l 17.24573982244931 2.0129515769445705 a38.36281993440978,38.36281993440978 0 0,0 -0.08220328562301757,0.6552410669496377 l -17.208535027579444 -2.309510398181603" fill="#ffc212" stroke="none" /><path d="M 120.81339534386255 102.79330883721812 l 17.055555112745058 2.288979382412003 a38.208468462271455,38.208468462271455 0 0,0 -0.09309393086068465,0.6510987356151222 l -17.01362713086777 -2.5822235900075343" fill="#ffc011" stroke="none" /><path d="M 120.76222939487914 103.15116336523771 l 16.897945606080267 2.564666160310937 a38.09146214400311,38.09146214400311 0 0,0 -0.1039683706622692,0.6474111433595101 l -16.85129548105671 -2.855156533363652" fill="#ffbe11" stroke="none" /><path d="M 120.70491114924044 103.5080841355445 l 12.826437793094563 2.1732149736442663 a34.00924170664056,34.00924170664056 0 0,0 -0.10276225617298976,0.5763453059607226 l -12.787129094582385 -2.393679030338207" fill="#ff860c" stroke="none" /><path d="M 120.64145759157962 103.86396538481128 l 61.924372774738885 11.591896154433844 a84.0,84.0 0 0,0 -0.2782802680973435,1.4189450917282203 l -61.715662573665874 -12.656104973230008" fill="#4dd2ff" stroke="none" /><path d="M 120.5718875245553 104.21870165774334 l 4.653762081580466 0.9543525738643178 a25.750609471130794,25.750609471130794 0 0,0 -0.09278307709831295,0.43345164712646894 l -4.63664496575771 -1.0343180404069559" fill="#ff0d01" stroke="none" /><path d="M 120.49622156327973 104.57218783832717 l 16.578070796220636 3.698147653380355 a37.98554465981901,37.98554465981901 0 0,0 -0.14785318682444368,0.6369476591622913 l -16.511957043465642 -3.982963969891211" fill="#ffbd11" stroke="none" /><path d="M 120.41448212921028 104.9243191809786 l 13.645435505761698 3.291510378197781 a35.03680699844825,35.03680699844825 0 0,0 -0.14646834465197073,0.5850682290839184 l -13.586755846814667 -3.525906446679095" fill="#ff940d" stroke="none" /><path d="M 120.32669344350535 105.2749913415812 l 15.409443157884773 3.998913028444451 a36.91986946696312,36.91986946696312 0 0,0 -0.16492971313839497,0.6137648179472411 l -15.338325368404602 -4.26356877956724" fill="#ffae10" stroke="none" /><path d="M 120.23288151984713 105.62410040840565 l 10.91156257743682 3.033068892728335 a32.325268420190135,32.325268420190135 0 0,0 -0.15363332395086765,0.5348177554715654 l -10.857736616599853 -3.2204441237044823" fill="#ff6e0a" stroke="none" /><path d="M 120.13307415673323 105.97154293290107 l 52.70880939309976 15.633624342844335 a75.97843938973983,75.97843938973983 0 0,0 -0.38268975019999807,1.2506522459343525 l -52.43189287039363 -16.538603561330746" fill="#43ffdb" stroke="none" /><path d="M 120.02730092923936 106.31721596034902 l 7.125990011809444 2.247752605053608 a28.472089762705828,28.472089762705828 0 0,0 -0.15145490744072507,0.46613027525472467 l -7.086242853352472 -2.370081780286128" fill="#ff3605" stroke="none" /><path d="M 119.26925614724726 108.34839909993367 l 5.023258960674704 2.1763253477753617 a26.474442675320315,26.474442675320315 0 0,0 -0.184765028611383,0.41659636297564656 l -4.985052847332048 -2.262470047243696" fill="#ff1802" stroke="none" /><path d="M 119.12269723197855 108.67885076344098 l 11.154768086988325 5.062600027253016 a33.24984775866359,33.24984775866359 0 0,0 -0.24102241976570665,0.5191408498142734 l -11.065971050382787 -5.25386094434612" fill="#ff7b0b" stroke="none" /><path d="M 118.97047184881838 109.00673069616215 l 12.344368251190208 5.860813654967135 a34.66501241196809,34.66501241196809 0 0,0 -0.2605599675542701,0.5368307084748966 l -12.241655027021224 -6.072433319407307" fill="#ff8f0d" stroke="none" /><path d="M 118.64920377521936 109.65438752849418 l 19.555024723699002 10.123316206278863 a43.02000279193415,43.02000279193415 0 0,0 -0.346101027040732,0.6546927115835587 l -19.377871188433378 -10.458423932948556" fill="#ffff18" stroke="none" /><line stroke="#e1ed5e" stroke-width="0.3" x1="174.80103733775053" x2="179.2010983576182" y1="140.37084112569926" y2="142.7455964860345" /><path d="M 175.68104954172406 140.8457921977663 a86.0,86.0 0 0,1 -30.038265399797805,32.042727171017184" fill="none" id="id5" stroke="none" /><text fill="#e1ed5e" style="font-size:6.75px; font-family:Arial;" text-anchor="middle"><textPath startOffset="22.206326154141568" xlink:href="#id5">May</textPath></text><path d="M 118.48025628344425 109.97397251340804 l 19.358354569789416 10.447890625675974 a42.99782512376564,42.99782512376564 0 0,0 -0.357135002088733,0.6483037656647475 l -19.175643158249173 -10.779564909738529" fill="#fffe18" stroke="none" /><path d="M 118.30583269289576 110.29060199501023 l 30.834532860436898 17.333595837569458 a56.37261598159752,56.37261598159752 0 0,0 -0.4827858312361262,0.8417777908990203 l -30.53159503304839 -17.86179347432679" fill="#62ff29" stroke="none" /><path d="M 118.12598468904814 110.60418214915192 l 25.558620838820545 14.952471576328799 a50.61113819871692,50.61113819871692 0 0,0 -0.44638812843249287,0.748172179450033 l -25.297451834689824 -15.390205849664937" fill="#a3ff22" stroke="none" /><path d="M 117.94076556474637 110.91462005526583 l 6.348182663257225 3.862042651459041 a28.430665957218665,28.430665957218665 0 0,0 -0.2579546277446876,0.41590499446600004 l -6.280763395844574 -3.9707439772903146" fill="#ff3605" stroke="none" /><path d="M 117.75023020441432 111.22182372390056 l 6.340663298897624 4.0086131285857665 a28.501532529067475,28.501532529067475 0 0,0 -0.2657362597853434,0.4124285764152233 l -6.270722175735231 -4.1171633049224425" fill="#ff3705" stroke="none" /><path d="M 117.55443506779139 111.5257021239791 l 6.299169764231045 4.135841116534271 a28.535563778498464,28.535563778498464 0 0,0 -0.2731218907063096,0.40828016894117397 l -6.227044768114014 -4.243658199681253" fill="#ff3705" stroke="none" /><path d="M 117.35343817320211 111.8261652097733 l 6.209139460266186 4.231455941740963 a28.513895941782103,28.513895941782103 0 0,0 -0.2798966020339147,0.4032119309048704 l -6.135381951070134 -4.337709134832853" fill="#ff3705" stroke="none" /><path d="M 116.93607887273984 112.41649034213515 l 5.8957500277667965 4.322400942359732 a28.31047319237438,28.31047319237438 0 0,0 -0.2915152791610281,0.39053235518226975 l -5.8204734819106765 -4.423246177051316" fill="#ff3404" stroke="none" /><path d="M 116.71984013943494 112.70617746262583 l 38.40491611611013 29.185666581680955 a69.23630080864933,69.23630080864933 0 0,0 -0.7292665590434461,0.9426753336851068 l -37.896842739848616 -29.842419909479315" fill="#3aff91" stroke="none" /><path d="M 116.0416608686014 113.55231037782055 l 5.755747179690744 4.8625683384263585 a28.53479903132024,28.53479903132024 0 0,0 -0.3202113871249064,0.37247818501468216 l -5.671193282995056 -4.960923622602569" fill="#ff3705" stroke="none" /><path d="M 115.80600337817218 113.82643327865902 l 5.605958635311916 4.903859070478447 a28.448127684454796,28.448127684454796 0 0,0 -0.3255836063349025,0.3657966332053689 l -5.52071617932868 -4.999629873424682" fill="#ff3605" stroke="none" /><path d="M 115.56566222782051 114.09645910891815 l 5.495113569899591 4.976443828936725 a28.413586603571652,28.413586603571652 0 0,0 -0.33142905239378306,0.3597007783406251 l -5.408638109510084 -5.0702958620786855" fill="#ff3505" stroke="none" /><path d="M 115.32070863581623 114.36230785411682 l 6.135245144457421 5.751449336956754 a29.40954234534607,29.40954234534607 0 0,0 -0.3494041972431794,0.3663489039099016 l -6.035334395835277 -5.856205357449163" fill="#ff4406" stroke="none" /><path d="M 115.07121518719521 114.62390073753431 l 6.069362562301134 5.889223566166651 a29.45695667039599,29.45695667039599 0 0,0 -0.35623191922761605,0.3608610534218589 l -5.967090018017982 -5.992825113569174" fill="#ff4506" stroke="none" /><path d="M 114.81725581225074 114.88116024355365 l 5.95342032678893 5.979096467169533 a29.4375830752143,29.4375830752143 0 0,0 -0.362152428067768,0.35444237384648436 l -5.849617946345367 -6.080688943938589" fill="#ff4506" stroke="none" /><path d="M 114.55890576462653 115.13401014063108 l 5.8414000809847115 6.072146457318153 a29.42572949395182,29.42572949395182 0 0,0 -0.3680516516652694,0.3480158092753141 l -5.736012594928635 -6.171796903339389" fill="#ff4406" stroke="none" /><path d="M 114.29624159901734 115.38237550388516 l 5.732194718273311 6.16768896966095 a29.420121347978174,29.420121347978174 0 0,0 -0.37391636392928135,0.34156373297797943 l -5.625178804877166 -6.265445469225512" fill="#ff4406" stroke="none" /><path d="M 114.0293411484842 115.62618273729858 l 7.365985251653058 8.204393233035972 a32.025869899915236,32.025869899915236 0 0,0 -0.4133741400567028,0.36475461641291185 l -7.223668758689768 -8.329970991221174" fill="#ff6a09" stroke="none" /><path d="M 113.75828350139079 115.86535959552629 l 7.278614936333139 8.39333215590597 a32.10973717379385,32.10973717379385 0 0,0 -0.4206903445022877,0.35852143826696314 l -7.133059115253804 -8.51737798439588" fill="#ff6b09" stroke="none" /><path d="M 113.20401910651253 116.32954008644616 l 6.994445521226352 8.650099458353214 a32.124139912317084,32.124139912317084 0 0,0 -0.4329760526228972,0.3439823622873551 l -6.844511975886103 -8.769215734645694" fill="#ff6b09" stroke="none" /><path d="M 112.92097659922987 116.55440617244103 l 6.828121598089426 8.7482163179776 a32.097501218942256,32.097501218942256 0 0,0 -0.4384690946123619,0.33619940446739455 l -6.676523774983571 -8.864455064272365" fill="#ff6b09" stroke="none" /><path d="M 112.63410532772338 116.77436683061366 l 6.915157279689653 9.181289999725298 a32.49415008871472,32.49415008871472 0 0,0 -0.44968039948835425,0.33266280920144836 l -6.756091909782735 -9.298962757666516" fill="#ff710a" stroke="none" /><path d="M 112.34349029814194 116.9893568818739 l 6.757964856087289 9.301540647098118 a32.49733653529066,32.49733653529066 0 0,0 -0.45538466952543105,0.3249048704935129 l -6.596852858712974 -9.41648977943585" fill="#ff710a" stroke="none" /><path d="M 112.04921762599082 117.19931262002967 l 6.639415558826835 9.47724469381567 a32.571517011578436,32.571517011578436 0 0,0 -0.4619620047279655,0.31774167924635077 l -6.475296669475987 -9.590127162427114" fill="#ff720a" stroke="none" /><path d="M 111.7513745106137 117.40417183066458 l 6.408038088849731 9.490514994229368 a32.451324246734146,32.451324246734146 0 0,0 -0.4656383359492511,0.30859969858476616 l -6.243725054160515 -9.599412713905451" fill="#ff700a" stroke="none" /><path d="M 111.45004920935366 117.60387380957326 l 6.3109268943209385 9.702732157544942 a32.57457600029133,32.57457600029133 0 0,0 -0.47266981418543247,0.3016802390113765 l -6.142975278088576 -9.809926825380128" fill="#ff720a" stroke="none" /><path d="M 111.1453310114006 117.79835938074945 l 6.120111025476074 9.773414120234513 a32.53149524258468,32.53149524258468 0 0,0 -0.4771608186675822,0.29311114720070336 l -5.950971006876183 -9.877313734263595" fill="#ff710a" stroke="none" /><line stroke="#e1ed5e" stroke-width="0.3" x1="143.8653032363475" x2="146.44561519142675" y1="172.8068346515853" y2="177.08958963109032" /><path d="M 144.38136562736335 173.6633856474863 a86.0,86.0 0 0,1 -40.68145358897372,12.25698825130547" fill="none" id="id6" stroke="none" /><text fill="#e1ed5e" style="font-size:6.75px; font-family:Arial;" text-anchor="middle"><textPath startOffset="21.466115282336833" xlink:href="#id6">June</textPath></text><path d="M 110.21172684928248 118.3499491758327 l 5.5847669921054885 10.035539725703138 a32.48484566471299,32.48484566471299 0 0,0 -0.4909499511403566,0.26770505801998457 l -5.411194229096482 -10.130185435482893" fill="#ff710a" stroke="none" /><path d="M 109.89434966115114 118.52300852407294 l 5.448967556031144 10.200900104031604 a32.56501666056353,32.56501666056353 0 0,0 -0.4967081474168923,0.2598542268516957 l -5.272568506087756 -10.293183749828016" fill="#ff720a" stroke="none" /><path d="M 109.57404056367764 118.69057910512821 l 5.26437515218899 10.27718856700393 a32.54704510187525,32.54704510187525 0 0,0 -0.5008309733878066,0.2511270471371033 l -5.086690271118423 -10.366283455050336" fill="#ff710a" stroke="none" /><path d="M 109.2508944713604 118.85261126421891 l 5.074450098050331 10.341338923970246 a32.51925928773309,32.51925928773309 0 0,0 -0.5046483165660948,0.2422618593794193 l -4.8956891134840035 -10.427155059849225" fill="#ff710a" stroke="none" /><path d="M 108.92500713936063 119.00905698771935 l 5.485325591794562 11.683000936858406 a33.90663812689543,33.90663812689543 0 0,0 -0.5304483705056089,0.24350283004949871 l -5.283409225521534 -11.77569083724198" fill="#ff850c" stroke="none" /><path d="M 108.2653958097858 119.30500536409082 l 4.53983822482986 10.60343670156508 a32.53442677343455,32.53442677343455 0 0,0 -0.5167218989443023,0.21598979566610524 l -4.356644866388097 -10.680011540251158" fill="#ff710a" stroke="none" /><path d="M 107.93186726928326 119.44442032107085 l 4.47603665462893 10.972692195968792 a32.85052227376735,32.85052227376735 0 0,0 -0.5254189558464611,0.20907504594274892 l -4.286496622740603 -11.048114086317609" fill="#ff760a" stroke="none" /><path d="M 107.2578585660854 119.70592522655815 l 3.9717268762225877 10.783697716138812 a32.49185584718005,32.49185584718005 0 0,0 -0.5264925230301785,0.1887814870518851 l -3.7855147925626746 -10.850466744230657" fill="#ff710a" stroke="none" /><path d="M 106.91757812671514 119.82793768551818 l 3.8194812248421615 10.947825139076404 a32.59496925837732,32.59496925837732 0 0,0 -0.5313449776725326,0.18026106532454492 l -3.6304665142324017 -11.011949191299072" fill="#ff720a" stroke="none" /><path d="M 106.57524785965236 119.94407469862006 l 2.6531606204086855 8.047580065470807 a29.47365365045389,29.47365365045389 0 0,0 -0.4831976111444648,0.15470461621082285 l -2.51424166417328 -8.092057528341337" fill="#ff4506" stroke="none" /><path d="M 106.2309692047433 120.05430185196036 l 3.549595504913209 11.42433181240922 a32.963067566829395,32.963067566829395 0 0,0 -0.5433020287665108,0.16369244449284914 l -3.352418501706452 -11.483739626007793" fill="#ff770b" stroke="none" /><path d="M 105.88484417918355 120.15858648285463 l 3.3352026170515723 11.424766458813009 a32.90163287684536,32.90163287684536 0 0,0 -0.5450215522056807,0.1540285347264629 l -3.1380498967412858 -11.48048378687799" fill="#ff760a" stroke="none" /><path d="M 105.53697534728816 120.25689768951611 l 3.1792847535400846 11.631340567525248 a33.058023674792274,33.058023674792274 0 0,0 -0.5501950102906515,0.14531150286239292 l -2.9785993004379354 -11.684343419691224" fill="#ff790b" stroke="none" /><path d="M 105.18746579009965 120.34920634021253 l 2.9451938011169267 11.553301514821529 a32.92279088210957,32.92279088210957 0 0,0 -0.5503541712500344,0.1352636652427972 l -2.7458863451236812 -11.602286438378357" fill="#ff770a" stroke="none" /><path d="M 104.83641907484287 120.43548508189849 l 2.672353902348328 11.29158732109392 a32.60350893520082,32.60350893520082 0 0,0 -0.5472419027975273,0.12455047541004582 l -2.4775918501579386 -11.33591453008165" fill="#ff720a" stroke="none" /><path d="M 104.48393922423573 120.51570834832081 l 2.4483085966729123 11.20193263203504 a32.46636427457256,32.46636427457256 0 0,0 -0.5469941379375224,0.11462793992919251 l -2.255122997306012 -11.242416552690774" fill="#ff700a" stroke="none" /><path d="M 104.13013068566511 120.58985236759428 l 2.3638909069268608 11.784654891346266 a33.01940394229194,33.01940394229194 0 0,0 -0.5582360831929702,0.10698727395700856 l -2.160687209162186 -11.823599363651741" fill="#ff780b" stroke="none" /><path d="M 103.06178313531738 120.77559828337769 l 1.6798518350906657 11.398562654183818 a32.52168098713081,32.52168098713081 0 0,0 -0.5545278156206856,0.07685250237606342 l -1.4833954282831496 -11.425789722052485" fill="#ff710a" stroke="none" /><path d="M 102.34483914955558 120.86867818915974 l 1.2811482956637663 11.40200661519354 a32.47375683062873,32.47375683062873 0 0,0 -0.5560240200976307,0.05763416312817438 l -1.0846916789605328 -11.422370146777473" fill="#ff700a" stroke="none" /><path d="M 101.98527174616119 120.90594882070398 l 1.0861617121179783 11.437850364039276 a32.4893066899193,32.4893066899193 0 0,0 -0.5572004008101038,0.048077595158907874 l -0.8891169935663329 -11.454852211476847" fill="#ff710a" stroke="none" /><path d="M 101.62511606390274 120.93702456842531 l 0.8898370301811218 11.464128733092048 a32.49861111392103,32.49861111392103 0 0,0 -0.5581052090782691,0.03849020282498428 l -0.6923690603239223 -11.477747280433316" fill="#ff710a" stroke="none" /><path d="M 101.26447882468166 120.96189622390904 l 0.719729207750124 11.931310092102603 a32.95299839564944,32.95299839564944 0 0,0 -0.5664964572562339,0.02928139608703188 l -0.5142446820804104 -11.941931294951837" fill="#ff770b" stroke="none" /><path d="M 100.90346689309514 120.98055641714683 l 0.5142830667335834 11.942822673913923 a32.9538906006907,32.9538906006907 0 0,0 -0.5669319051033104,0.019526281113754655 l -0.30863080995562076 -11.949905753453772" fill="#ff770b" stroke="none" /><line stroke="#e1ed5e" stroke-width="0.3" x1="102.19456741930631" x2="102.32365962044197" y1="184.97166512339345" y2="189.96999836594603" /><path d="M 102.22038585953345 185.97133177190398 a86.0,86.0 0 0,1 -42.740103519485714,-10.115201625700543" fill="none" id="id7" stroke="none" /><text fill="#e1ed5e" style="font-size:6.75px; font-family:Arial;" text-anchor="middle"><textPath startOffset="22.20632615414155" xlink:href="#id7">July</textPath></text><path d="M 100.54218724476979 120.99299961872073 l 0.30956867747283906 11.98621913526292 a32.990216091656364,32.990216091656364 0 0,0 -0.5678092349845797,0.009775350914084015 l -0.10319975259559148 -11.989771963456162" fill="#ff780b" stroke="none" /><path d="M 100.18074693466247 120.99922214144158 l 0.10278836655911575 11.941977035249087 a32.94241939301733,32.94241939301733 0 0,0 -0.5670706024431341,0.0 l 0.10278836655910752 -11.941977035249087" fill="#ff770b" stroke="none" /><path d="M 99.81925306533755 120.99922214144158 l -0.09884564278552423 11.48391044331247 a32.484335833260836,32.484335833260836 0 0,0 -0.5591023055811674,-0.009625453228279695 l 0.29650763825935955 -11.48050751280503" fill="#ff710a" stroke="none" /><path d="M 99.45781275523022 120.99299961872073 l -0.29919948257193696 11.584733289366017 a32.58859636522545,32.58859636522545 0 0,0 -0.5606474587736027,-0.019309832075388937 l 0.49856729302018266 -11.577866658864535" fill="#ff720a" stroke="none" /><path d="M 98.73552117531835 120.96189622390904 l -0.7167898146325182 11.882582306164501 a32.90418203410611,32.90418203410611 0 0,0 -0.5650701603622645,-0.03897054664408221 l 0.9212227357737128 -11.868483415004134" fill="#ff770a" stroke="none" /><path d="M 98.37488393609728 120.93702456842531 l -0.8919872765102108 11.491831222299096 a32.526396928063185,32.526396928063185 0 0,0 -0.5578365084302866,-0.04813248120097852 l 1.0896681026820392 -11.474774488819454" fill="#ff710a" stroke="none" /><path d="M 98.01472825383883 120.90594882070398 l -1.0921623392688513 11.501040103353812 a32.55278070571193,32.55278070571193 0 0,0 -0.5573770872200181,-0.0577744140677624 l 1.2899720230944627 -11.48053632083029" fill="#ff720a" stroke="none" /><path d="M 97.65516085044442 120.86867818915974 l -1.2886342321614215 11.468630204169235 a32.540799666586416,32.540799666586416 0 0,0 -0.5560952682055409,-0.06733539258885074 l 1.4858569234183516 -11.444749282855037" fill="#ff710a" stroke="none" /><path d="M 96.22490169976321 120.6578951692458 l -2.0694718903461036 11.324455674118257 a32.51199418953996,32.51199418953996 0 0,0 -0.549657659625884,-0.10534319866355354 l 2.2640971645436827 -11.287155277106233" fill="#ff710a" stroke="none" /><path d="M 95.86986931433489 120.58985236759428 l -2.2458730874995805 11.196303174731826 a32.41933232311175,32.41933232311175 0 0,0 -0.5462017424131054,-0.11446188574273639 l 2.4382662913420727 -11.155985308262549" fill="#ff700a" stroke="none" /><path d="M 95.51606077576429 120.51570834832081 l -2.458514191521311 11.248627066763184 a32.514160973211595,32.514160973211595 0 0,0 -0.5457422191644781,-0.12420915229771114 l 2.651776560078652 -11.204641180887785" fill="#ff710a" stroke="none" /><path d="M 95.16358092515715 120.4354850818985 l -2.364222145137592 9.989627786509216 a31.265583746897008,31.265583746897008 0 0,0 -0.5226514511873457,-0.1284550106552186 l 2.5358268810681484 -9.947451517539967" fill="#ff5f08" stroke="none" /><path d="M 94.11515582081647 120.15858648285463 l -3.345560721926908 11.460248239905312 a32.938595657126214,32.938595657126214 0 0,0 -0.5428986792250104,-0.1635709185847218 l 3.542334375592164 -11.400961952214864" fill="#ff770b" stroke="none" /><path d="M 93.76903079525671 120.05430185196036 l -3.6224337084148654 11.658760722483906 a33.208551411039466,33.208551411039466 0 0,0 -0.5444283529176677,-0.17430876612350785 l 3.8225834064234734 -11.594679109700692" fill="#ff7b0b" stroke="none" /><path d="M 93.42475214034765 119.94407469862007 l -3.8068197644593122 11.546864752042067 a33.15820555513969,33.15820555513969 0 0,0 -0.540526541095873,-0.1833759501424756 l 4.005016038492411 -11.479625815001468" fill="#ff7a0b" stroke="none" /><path d="M 93.08242187328487 119.8279376855182 l -3.9760459046570027 11.396588370695454 a33.07025962964387,33.07025962964387 0 0,0 -0.5358648798506777,-0.1921420807552316 l 4.171630345137407 -11.326458748900265" fill="#ff790b" stroke="none" /><path d="M 92.7421414339146 119.70592522655815 l -4.19814905123849 11.398460102298761 a33.146989263192395,33.146989263192395 0 0,0 -0.5337135315249769,-0.20180478957122802 l 4.39373280352375 -11.324507062620901" fill="#ff7a0b" stroke="none" /><path d="M 92.40401165467489 119.57807347666478 l -4.363028032929777 11.245367887118755 a33.06210232640947,33.06210232640947 0 0,0 -0.528803016818495,-0.21042163364257874 l 4.555952125790131 -11.16859940907011" fill="#ff790b" stroke="none" /><path d="M 92.06813273071674 119.44442032107085 l -4.337628835599734 10.633395064844517 a32.48408091753476,32.48408091753476 0 0,0 -0.5159222903805574,-0.21565555922161042 l 4.520022585477754 -10.557154462602934" fill="#ff710a" stroke="none" /><path d="M 91.7346041902142 119.30500536409082 l -4.787709298345638 11.182374784380153 a33.164196074702446,33.164196074702446 0 0,0 -0.5228561743776573,-0.22920478152058638 l 4.9794861473810395 -11.098305449565116" fill="#ff7a0b" stroke="none" /><path d="M 91.40352486487194 119.15986991738527 l -4.992321353771179 11.126912626452413 a33.19555070900965,33.19555070900965 0 0,0 -0.5193238479064382,-0.23839610734759717 l 5.183113197445037 -11.039329448770742" fill="#ff7b0b" stroke="none" /><path d="M 91.07499286063937 119.00905698771935 l -5.181813126202093 11.036560473019875 a33.19249172029676,33.19249172029676 0 0,0 -0.515095836626265,-0.24727730390305294 l 5.371021630828601 -10.94572889261726" fill="#ff7b0b" stroke="none" /><line stroke="#e1ed5e" stroke-width="0.3" x1="58.666819895761336" x2="56.23545636021788" y1="174.27360380694188" y2="178.64263932499728" /><path d="M 58.180547188652646 175.14741091055294 a86.0,86.0 0 0,1 -31.652253787137756,-30.449443065178592" fill="none" id="id8" stroke="none" /><text fill="#e1ed5e" style="font-size:6.75px; font-family:Arial;" text-anchor="middle"><textPath startOffset="22.20632615414155" xlink:href="#id8">August</textPath></text><path d="M 89.7882731507175 118.34994917583269 l -5.297183132434549 9.518766286045144 a31.89344118021935,31.89344118021935 0 0,0 -0.477416312482281,-0.2710894420278207 l 5.460248211838038 -9.42617367822269" fill="#ff6809" stroke="none" /><path d="M 89.4739219176387 118.17145234162733 l -6.049032742947111 10.44260828594848 a33.06809284597223,33.06809284597223 0 0,0 -0.4900882351182412,-0.2895527678114391 l 6.227888849093735 -10.336936945843293" fill="#ff790b" stroke="none" /><path d="M 89.1626897886671 117.98757091392108 l -5.590188497478725 9.278493469295748 a31.83238886382442,31.83238886382442 0 0,0 -0.4669065659952888,-0.28681214768759433 l 5.749074263406323 -9.180892854779776" fill="#ff6709" stroke="none" /><path d="M 88.8546689885994 117.79835938074946 l -6.414708126444849 10.243866282687636 a33.086574236112654,33.086574236112654 0 0,0 -0.4800991084604256,-0.30642196612257017 l 6.590089036952198 -10.131929887741261" fill="#ff790b" stroke="none" /><path d="M 88.54995079064634 117.60387380957326 l -6.496340037597068 9.987795524277278 a32.914633578875176,32.914633578875176 0 0,0 -0.4722862799532539,-0.3130055933693101 l 6.667301016290283 -9.87449190981665" fill="#ff770a" stroke="none" /><path d="M 88.24862548938628 117.40417183066458 l -6.782703331723243 10.045406531390299 a33.120860401269724,33.120860401269724 0 0,0 -0.46975334504211647,-0.3231006341596606 l 6.9546135613882525 -9.92716510786554" fill="#ff7a0b" stroke="none" /><path d="M 87.95078237400918 117.19931262002967 l -6.846890438935125 9.773398803945478 a32.9331149690156,32.9331149690156 0 0,0 -0.4614912259139104,-0.32926173633756484 l 7.01410899269792 -9.654092805763694" fill="#ff770a" stroke="none" /><path d="M 87.65650970185807 116.9893568818739 l -7.080486209731272 9.74545320721959 a33.04604263566676,33.04604263566676 0 0,0 -0.45731793610065147,-0.33831287619951306 l 7.247189116250488 -9.622130382280309" fill="#ff790b" stroke="none" /><path d="M 87.36589467227662 116.77436683061367 l -7.246192253923632 9.620806843025527 a33.044385683447274,33.044385683447274 0 0,0 -0.4514040446267687,-0.3461173725638762 l 7.410725027043887 -9.494650128634284" fill="#ff790b" stroke="none" /><path d="M 87.07902340077011 116.55440617244103 l -7.3360664640657385 9.398997283332736 a32.92304579783564,32.92304579783564 0 0,0 -0.44374387761907846,-0.35253697369472053 l 7.496767834402175 -9.271326395632885" fill="#ff770a" stroke="none" /><path d="M 86.79598089348748 116.32954008644616 l -7.60816349734321 9.409090505846471 a33.10021222745766,33.10021222745766 0 0,0 -0.43996466591398936,-0.36206096740525023 l 7.768998291801889 -9.27673441958404" fill="#ff790b" stroke="none" /><path d="M 86.51685102203217 116.09983520530335 l -7.686426855804333 9.17813827454417 a32.971607243652905,32.971607243652905 0 0,0 -0.4319822593081386,-0.3681446530373745 l 7.843274591689529 -9.044469231283843" fill="#ff770b" stroke="none" /><path d="M 86.24171649860922 115.8653595955263 l -8.001349233450787 9.226752946706835 a33.21288497838274,33.21288497838274 0 0,0 -0.42869554549640776,-0.378273975324187 l 8.158987131853783 -9.087655829610359" fill="#ff7b0b" stroke="none" /><path d="M 85.97065885151581 115.62618273729859 l -8.0622567403679 8.979915433421324 a33.06809284597223,33.06809284597223 0 0,0 -0.42028042280294253,-0.38391620147784056 l 8.2156367126377 -8.839806465356906" fill="#ff790b" stroke="none" /><path d="M 85.70375840098266 115.38237550388516 l -8.188043876810584 8.810117308317272 a33.02756124552633,33.02756124552633 0 0,0 -0.4131027055553543,-0.3906143926733925 l 8.338482416756753 -8.66786827889795" fill="#ff780b" stroke="none" /><path d="M 85.44109423537348 115.13401014063109 l -8.458392559707411 8.792515099800452 a33.20052156566811,33.20052156566811 0 0,0 -0.40844553941137274,-0.39974992670458037 l 8.608488051494579 -8.645615070173303" fill="#ff7b0b" stroke="none" /><path d="M 85.18274418774928 114.88116024355367 l -8.565950130762074 8.602893690258636 a33.140233996451414,33.140233996451414 0 0,0 -0.40077491005962707,-0.4059828679662988 l 8.712765665877235 -8.454170328311672" fill="#ff7a0b" stroke="none" /><path d="M 84.9287848128048 114.62390073753433 l -8.700965575893107 8.442720465611254 a33.12379193211959,33.12379193211959 0 0,0 -0.39353186097858955,-0.4126165829164039 l 8.845003988250655 -8.29169676611235" fill="#ff7a0b" stroke="none" /><path d="M 84.67929136418377 114.36230785411682 l -8.778424689937074 8.229282396005782 a33.03253210218479,33.03253210218479 0 0,0 -0.38530654244888,-0.4181741528619153 l 8.918777640381686 -8.076956988342525" fill="#ff780b" stroke="none" /><path d="M 84.4343377721795 114.09645910891817 l -8.983020350388246 8.135135992961743 a33.11920344905023,33.11920344905023 0 0,0 -0.379043212175029,-0.42585906708814036 l 9.121722412211609 -7.9793027561327365" fill="#ff7a0b" stroke="none" /><path d="M 84.19399662182784 113.82643327865904 l -9.117117613551628 7.975274670100451 a33.113085471624444,33.113085471624444 0 0,0 -0.3715879344100593,-0.43224071643780376 l 9.25304805753247 -7.817156854501117" fill="#ff790b" stroke="none" /><path d="M 83.95833913139862 113.55231037782056 l -9.327336492103548 7.879917184060275 a33.210335821121994,33.210335821121994 0 0,0 -0.3651618755226688,-0.4398610026722237 l 9.461594367519753 -7.71819492427429" fill="#ff7b0b" stroke="none" /><path d="M 83.72743513129214 113.27417163493432 l -9.399372377190653 7.667437997768871 a33.13003736740842,33.13003736740842 0 0,0 -0.356671810558294,-0.44500292446943357 l 9.529962099803809 -7.504507239721177" fill="#ff7a0b" stroke="none" /><path d="M 83.50135304334701 112.99209946851258 l -9.449752161252986 7.44134475720043 a33.02794361911544,33.02794361911544 0 0,0 -0.34788361761211106,-0.4496864709472326 l 9.576442596083167 -7.2775802921399455" fill="#ff780b" stroke="none" /><path d="M 83.28015986056508 112.70617746262583 l -9.711004766335861 7.379840289886825 a33.19695274550306,33.19695274550306 0 0,0 -0.3418317624414619,-0.457939507138592 l 9.836597795472407 -7.211587903238928" fill="#ff7b0b" stroke="none" /><line stroke="#e1ed5e" stroke-width="0.3" x1="26.63291911575756" x2="22.317208475507996" y1="142.92168965132927" y2="145.44649492493687" /><path d="M 25.769776987707644 143.4266507060508 a86.0,86.0 0 0,1 -11.730757126820373,-40.83630448921669" fill="none" id="id9" stroke="none" /><text fill="#e1ed5e" style="font-size:6.75px; font-family:Arial;" text-anchor="middle"><textPath startOffset="21.46611528233685" xlink:href="#id9">September</textPath></text><line stroke="#e1ed5e" stroke-width="0.3" x1="15.007084014347285" x2="10.007500721073583" y1="101.09737516637583" y2="101.16192664675087" /><path d="M 14.007167355692545 101.11028546245083 a86.0,86.0 0 0,1 10.666146001902534,-42.60595125391555" fill="none" id="id10" stroke="none" /><text fill="#e1ed5e" style="font-size:6.75px; font-family:Arial;" text-anchor="middle"><textPath startOffset="22.20632615414155" xlink:href="#id10">October</textPath></text><line stroke="#e1ed5e" stroke-width="0.3" x1="26.266209847984243" x2="21.928928074336255" y1="57.711370442889674" y2="55.22380399835377" /><path d="M 25.398753493254645 57.213857153982495 a86.0,86.0 0 0,1 29.58750427330803,-30.492523968695096" fill="none" id="id11" stroke="none" /><text fill="#e1ed5e" style="font-size:6.75px; font-family:Arial;" text-anchor="middle"><textPath startOffset="21.46611528233685" xlink:href="#id11">November</textPath></text><line stroke="#e1ed5e" stroke-width="0.3" x1="56.76296977257108" x2="54.21961505331056" y1="26.818313649435495" y2="22.513508569990535" /><path d="M 56.25429882871898 25.957352633546506 a86.0,86.0 0 0,1 42.26535254187918,-11.944610805530505" fill="none" id="id12" stroke="none" /><text fill="#e1ed5e" style="font-size:6.75px; font-family:Arial;" text-anchor="middle"><textPath startOffset="22.20632615414155" xlink:href="#id12">December</textPath></text></svg>